<?xml version="1.0" standalone="no"?>
<!DOCTYPE svg PUBLIC "-//W3C//DTD SVG 20010904//EN"
 "http://www.w3.org/TR/2001/REC-SVG-20010904/DTD/svg10.dtd">
<svg version="1.0" xmlns="http://www.w3.org/2000/svg"
 width="128.000000pt" height="128.000000pt" viewBox="0 0 128.000000 128.000000"
 preserveAspectRatio="xMidYMid meet">

<g transform="translate(0.000000,128.000000) scale(0.100000,-0.100000)"
fill="#000000" stroke="none">
<path d="M768 1176 c-32 -17 -129 -89 -205 -154 -29 -25 -53 -42 -53 -39 0 3
16 32 35 64 19 32 35 68 35 79 0 29 -25 48 -54 40 -25 -6 -259 -180 -264 -197
-2 -5 2 -16 8 -25 16 -18 41 -11 98 27 24 16 45 29 47 29 3 0 -21 -49 -53
-109 l-57 -110 21 -21 c20 -21 23 -21 51 -6 17 8 79 60 139 115 60 55 112 101
115 101 3 0 -42 -96 -101 -212 -58 -117 -130 -264 -160 -327 -30 -63 -74 -147
-97 -185 -43 -72 -53 -112 -31 -134 18 -18 42 -14 65 11 23 24 102 178 216
423 87 187 232 463 282 537 39 58 42 69 19 91 -19 19 -22 20 -56 2z"/>
<path d="M922 1117 c-16 -19 -86 -162 -152 -312 -92 -208 -233 -483 -294 -575
-59 -88 -67 -123 -29 -128 16 -2 38 17 96 90 41 51 110 127 152 168 88 85 86
88 38 -73 -25 -83 -25 -89 -9 -105 31 -32 55 -10 293 281 51 62 55 69 40 84
-14 15 -23 9 -102 -62 -47 -43 -91 -87 -96 -97 -5 -10 -14 -18 -18 -18 -5 0 5
45 22 99 16 55 27 106 24 115 -13 33 -48 16 -110 -51 -82 -89 -139 -144 -145
-139 -2 3 38 87 90 188 119 229 252 524 243 537 -9 15 -30 14 -43 -2z"/>
</g>
</svg>
